<svg width="2476" height="2476" xmlns="http://www.w3.org/2000/svg" xmlns:xlink="http://www.w3.org/1999/xlink" xml:space="preserve" overflow="hidden"><g transform="translate(-3771 1662)"><path d="M5023.53-1587.08 5095.12-1587.08 5095.12-1556.54 5023.53-1556.54 5023.53-1476.26 4990.71-1476.26 4990.71-1556.54 4919.12-1556.54 4919.12-1587.08 4990.71-1587.08 4990.71-1661.26 5023.53-1661.26 5023.53-1587.08Z" fill="#E5E5E5" fill-rule="evenodd"/><path d="M5023.53-1014.69 5095.12-1014.69 5095.12-983.976 5023.53-983.976 5023.53-903.258 4990.71-903.258 4990.71-983.976 4919.12-983.976 4919.12-1014.69 4990.71-1014.69 4990.71-1089.26 5023.53-1089.26 5023.53-1014.69Z" fill="#E5E5E5" fill-rule="evenodd"/><path d="M5023.53-442.273 5095.12-442.273 5095.12-411.404 5023.53-411.404 5023.53-330.257 4990.71-330.257 4990.71-411.404 4919.12-411.404 4919.12-442.273 4990.71-442.273 4990.71-517.257 5023.53-517.257 5023.53-442.273Z" fill="#00B050" fill-rule="evenodd"/><path d="M5023.53 129.313 5095.12 129.313 5095.12 160.024 5023.53 160.024 5023.53 240.742 4990.71 240.742 4990.71 160.024 4919.12 160.024 4919.12 129.313 4990.71 129.313 4990.71 54.7423 5023.53 54.7423 5023.53 129.313Z" fill="#E5E5E5" fill-rule="evenodd"/><path d="M5023.53 702.313 5095.12 702.313 5095.12 733.024 5023.53 733.024 5023.53 813.742 4990.71 813.742 4990.71 733.024 4919.12 733.024 4919.12 702.313 4990.71 702.313 4990.71 627.742 5023.53 627.742 5023.53 702.313Z" fill="#E5E5E5" fill-rule="evenodd"/><path d="M5595.33-1587.08 5666.12-1587.08 5666.12-1556.54 5595.33-1556.54 5595.33-1476.26 5562.89-1476.26 5562.89-1556.54 5492.12-1556.54 5492.12-1587.08 5562.89-1587.08 5562.89-1661.26 5595.33-1661.26 5595.33-1587.08Z" fill="#E5E5E5" fill-rule="evenodd"/><path d="M5595.33-1014.69 5666.12-1014.69 5666.12-983.976 5595.33-983.976 5595.33-903.258 5562.89-903.258 5562.89-983.976 5492.12-983.976 5492.12-1014.69 5562.89-1014.69 5562.89-1089.26 5595.33-1089.26 5595.33-1014.69Z" fill="#E5E5E5" fill-rule="evenodd"/><path d="M5595.33-442.273 5666.12-442.273 5666.12-411.404 5595.33-411.404 5595.33-330.257 5562.89-330.257 5562.89-411.404 5492.12-411.404 5492.12-442.273 5562.89-442.273 5562.89-517.257 5595.33-517.257 5595.33-442.273Z" fill="#E5E5E5" fill-rule="evenodd"/><path d="M5595.33 129.313 5666.12 129.313 5666.12 160.024 5595.33 160.024 5595.33 240.742 5562.89 240.742 5562.89 160.024 5492.12 160.024 5492.12 129.313 5562.89 129.313 5562.89 54.7423 5595.33 54.7423 5595.33 129.313Z" fill="#E5E5E5" fill-rule="evenodd"/><path d="M5595.33 702.313 5666.12 702.313 5666.12 733.024 5595.33 733.024 5595.33 813.742 5562.89 813.742 5562.89 733.024 5492.12 733.024 5492.12 702.313 5562.89 702.313 5562.89 627.742 5595.33 627.742 5595.33 702.313Z" fill="#E5E5E5" fill-rule="evenodd"/><path d="M6167.51-1587.08 6239.12-1587.08 6239.12-1556.54 6167.51-1556.54 6167.51-1476.26 6134.71-1476.26 6134.71-1556.54 6063.12-1556.54 6063.12-1587.08 6134.71-1587.08 6134.71-1661.26 6167.51-1661.26 6167.51-1587.08Z" fill="#FFC000" fill-rule="evenodd"/><path d="M6167.51-1014.69 6239.12-1014.69 6239.12-983.976 6167.51-983.976 6167.51-903.258 6134.71-903.258 6134.71-983.976 6063.12-983.976 6063.12-1014.69 6134.71-1014.69 6134.71-1089.26 6167.51-1089.26 6167.51-1014.69Z" fill="#E5E5E5" fill-rule="evenodd"/><path d="M6167.51-442.273 6239.12-442.273 6239.12-411.404 6167.51-411.404 6167.51-330.257 6134.71-330.257 6134.71-411.404 6063.12-411.404 6063.12-442.273 6134.71-442.273 6134.71-517.257 6167.51-517.257 6167.51-442.273Z" fill="#E5E5E5" fill-rule="evenodd"/><path d="M6167.51 129.313 6239.12 129.313 6239.12 160.024 6167.51 160.024 6167.51 240.742 6134.71 240.742 6134.71 160.024 6063.12 160.024 6063.12 129.313 6134.71 129.313 6134.71 54.7423 6167.51 54.7423 6167.51 129.313Z" fill="#E5E5E5" fill-rule="evenodd"/><path d="M3845.92 699.072 3845.92 627.886 3876.46 627.886 3876.46 699.072 3956.74 699.072 3956.74 731.701 3876.46 731.701 3876.46 802.886 3845.92 802.886 3845.92 731.701 3771.74 731.701 3771.74 699.072 3845.92 699.072Z" fill="#E5E5E5" fill-rule="evenodd"/><path d="M4418.31 699.071 4418.31 627.886 4449.02 627.886 4449.02 699.071 4529.74 699.071 4529.74 731.701 4449.02 731.701 4449.02 802.886 4418.31 802.886 4418.31 731.701 4343.74 731.701 4343.74 699.071 4418.31 699.071Z" fill="#E5E5E5" fill-rule="evenodd"/><path d="M4990.13 699.071 4990.13 627.886 5021.16 627.886 5021.16 699.071 5102.74 699.071 5102.74 731.701 5021.16 731.701 5021.16 802.886 4990.13 802.886 4990.13 731.701 4914.74 731.701 4914.74 699.071 4990.13 699.071Z" fill="#D9D9D9" fill-rule="evenodd"/><path d="M5562.31 699.071 5562.31 627.886 5593.02 627.886 5593.02 699.071 5673.74 699.071 5673.74 731.701 5593.02 731.701 5593.02 802.886 5562.31 802.886 5562.31 731.701 5487.74 731.701 5487.74 699.071 5562.31 699.071Z" fill="#E5E5E5" fill-rule="evenodd"/><path d="M3845.92 127.072 3845.92 55.877 3876.46 55.877 3876.46 127.072 3956.74 127.072 3956.74 159.696 3876.46 159.696 3876.46 230.877 3845.92 230.877 3845.92 159.696 3771.74 159.696 3771.74 127.072 3845.92 127.072Z" fill="#E5E5E5" fill-rule="evenodd"/><path d="M4418.31 127.072 4418.31 55.8768 4449.02 55.8768 4449.02 127.072 4529.74 127.072 4529.74 159.696 4449.02 159.696 4449.02 230.877 4418.31 230.877 4418.31 159.696 4343.74 159.696 4343.74 127.072 4418.31 127.072Z" fill="#E5E5E5" fill-rule="evenodd"/><path d="M4990.13 127.072 4990.13 55.8768 5021.16 55.8768 5021.16 127.072 5102.74 127.072 5102.74 159.696 5021.16 159.696 5021.16 230.877 4990.13 230.877 4990.13 159.696 4914.74 159.696 4914.74 127.072 4990.13 127.072Z" fill="#E5E5E5" fill-rule="evenodd"/><path d="M5562.31 127.072 5562.31 55.8768 5593.02 55.8768 5593.02 127.072 5673.74 127.072 5673.74 159.696 5593.02 159.696 5593.02 230.877 5562.31 230.877 5562.31 159.696 5487.74 159.696 5487.74 127.072 5562.31 127.072Z" fill="#E5E5E5" fill-rule="evenodd"/><path d="M6135.31 127.072 6135.31 55.8768 6166.02 55.8768 6166.02 127.072 6246.74 127.072 6246.74 159.696 6166.02 159.696 6166.02 230.877 6135.31 230.877 6135.31 159.696 6060.74 159.696 6060.74 127.072 6135.31 127.072Z" fill="#E5E5E5" fill-rule="evenodd"/><path d="M3845.92-444.914 3845.92-516.114 3876.46-516.114 3876.46-444.914 3956.74-444.914 3956.74-412.299 3876.46-412.299 3876.46-341.114 3845.92-341.114 3845.92-412.299 3771.74-412.299 3771.74-444.914 3845.92-444.914Z" fill="#FFC000" fill-rule="evenodd"/><path d="M4418.31-444.914 4418.31-516.114 4449.02-516.114 4449.02-444.914 4529.74-444.914 4529.74-412.299 4449.02-412.299 4449.02-341.114 4418.31-341.114 4418.31-412.299 4343.74-412.299 4343.74-444.914 4418.31-444.914Z" fill="#E5E5E5" fill-rule="evenodd"/><path d="M4990.13-444.914 4990.13-516.114 5021.16-516.114 5021.16-444.914 5102.74-444.914 5102.74-412.299 5021.16-412.299 5021.16-341.114 4990.13-341.114 4990.13-412.299 4914.74-412.299 4914.74-444.914 4990.13-444.914Z" fill="#00B050" fill-rule="evenodd"/><path d="M5562.31-444.914 5562.31-516.114 5593.02-516.114 5593.02-444.914 5673.74-444.914 5673.74-412.299 5593.02-412.299 5593.02-341.114 5562.31-341.114 5562.31-412.299 5487.74-412.299 5487.74-444.914 5562.31-444.914Z" fill="#E5E5E5" fill-rule="evenodd"/><path d="M6135.31-444.914 6135.31-516.114 6166.02-516.114 6166.02-444.914 6246.74-444.914 6246.74-412.299 6166.02-412.299 6166.02-341.114 6135.31-341.114 6135.31-412.299 6060.74-412.299 6060.74-444.914 6135.31-444.914Z" fill="#E5E5E5" fill-rule="evenodd"/></g></svg>