<svg width="44" height="115" xmlns="http://www.w3.org/2000/svg" xmlns:xlink="http://www.w3.org/1999/xlink" xml:space="preserve" overflow="hidden"><g transform="translate(-1825 -544)"><path d="M4.02204 6.39095C7.17694 2.56724 15.1543-3.31169 21.8246 3.76215 28.495 10.836 19.496 24.0755 14.1627 29.8111 11.5337 31.4043 6.05018 34.1128 5.14876 32.2009 4.02203 29.8111 3.34598 24.7925 12.5853 20.4908 18.5195 17.9417 31.3344 15.2332 35.1203 24.7925 36.8479 28.9348 37.1484 38.5578 24.5288 43.911L8.75438 50.8415M8.75438 50.8415C2.74505 51.0822-5.89335 48.2168 7.62762 34.8297 11.9093 32.7585 22.2754 28.5684 29.4866 28.3772 33.6179 29.2534 41.5653 33.587 40.3033 43.911 40.4536 45.9822 37.6442 51.128 25.2049 55.1432 22.3505 55.7803 15.9656 57.1026 13.2614 57.2938L3.57136 58.7279 8.75438 50.8415ZM8.75438 50.8415C12.6975 49.7263 22.0038 47.8302 27.6837 49.1687 34.7837 50.8415 37.5991 49.4075 43.2328 58.7279 44.2094 63.5073 43.5033 73.3058 32.8668 74.2617 22.2303 75.2176 15.3646 73.3853 13.2614 72.3499L13.2614 63.5073M13.2614 63.5073C20.9984 64.2243 37.5991 63.6985 42.1061 55.8598 44.2845 50.2839 44.4497 38.8924 27.6837 37.9364 23.6275 38.0957 14.9741 38.6056 12.8107 39.3703L13.2614 56.338C21.1486 57.055 37.7343 60.4484 40.9794 68.2871 42.707 72.8276 43.2779 82.3869 31.74 84.2986 27.4584 84.458 17.7684 83.8685 13.2614 80.2362M13.2614 63.5073 13.2614 80.2362M13.2614 63.5073C18.1439 64.7024 28.9006 68.0002 32.8668 71.6329 37.6742 75.6158 44.7202 85.4938 34.4442 93.1413 31.2142 94.336 22.6359 95.2919 14.1627 89.5562M13.2614 80.2362 14.1627 89.5562M13.2614 80.2362C18.6698 84.0598 29.7119 93.3321 30.6133 99.8324 30.9889 103.815 29.9823 112.116 22.9514 113.454 21.1486 113.773 16.6867 113.741 13.2614 111.065L14.1627 89.5562" stroke="#FFC000" stroke-width="0.448981" fill="none" transform="matrix(1 0 0 1.00841 1825 544)"/></g></svg>