<svg width="48" height="91" xmlns="http://www.w3.org/2000/svg" xmlns:xlink="http://www.w3.org/1999/xlink" xml:space="preserve" overflow="hidden"><g transform="translate(-1483 -840)"><path d="M1518.38 840.972C1520.76 840.972 1523.17 841.102 1525.56 841.209 1527.11 841.274 1528.67 841.497 1530.13 841.658L1530.02 856.149 1528.87 856.149C1527.3 856.149 1525.72 856.129 1524.14 856.129 1522.95 856.129 1521.75 856.129 1520.58 856.18 1516.77 856.307 1513.96 857.747 1513.77 862.547 1513.65 866.002 1513.57 873.63 1513.56 874.031 1513.76 874.031 1517.53 874.031 1521.32 874.031 1523.22 874.031 1525.07 874.031 1526.36 874.031L1529.43 874.031C1528.65 879.599 1527.95 884.94 1527.18 890.312L1513.56 890.312 1513.25 930.972 1496.51 930.972 1496.82 890.251 1483.13 890.251 1483.25 874.062 1497 874.062 1497 872.849C1497.03 869.585 1497 866.335 1497.11 863.057 1497.13 860.978 1497.3 858.904 1497.63 856.852 1498.38 851.998 1501.02 847.646 1504.97 844.76 1508.51 842.289 1512.72 840.972 1517.03 840.989 1517.49 840.972 1517.93 840.972 1518.38 840.972Z" fill="#3ABD52" fill-rule="evenodd"/></g></svg>