<svg width="91" height="92" xmlns="http://www.w3.org/2000/svg" xmlns:xlink="http://www.w3.org/1999/xlink" xml:space="preserve" overflow="hidden"><g transform="translate(-2155 -406)"><path d="M2224.58 422.972 2224.65 422.972C2227.66 422.979 2230.1 425.428 2230.09 428.44 2230.09 428.457 2230.09 428.473 2230.09 428.489 2230.05 431.532 2227.57 433.976 2224.53 433.972 2221.51 433.953 2219.07 431.486 2219.09 428.462 2219.09 428.459 2219.09 428.457 2219.09 428.454 2219.1 425.429 2221.56 422.981 2224.58 422.972Z" fill="#3ABD52" fill-rule="evenodd"/><path d="M2244.53 429.817C2245.21 436.975 2245.63 470.788 2243.55 478.711 2241.46 488.446 2233.47 495.756 2223.68 496.896 2215.43 497.699 2207.15 498.038 2198.87 497.907 2190.51 498.152 2182.15 497.702 2173.86 496.567 2164.27 494.586 2157.03 486.576 2155.95 476.737 2154.74 469.07 2154.62 433.432 2156.8 425.689 2159.03 416.232 2166.86 409.182 2176.41 408.027 2183.89 407.198 2191.42 406.856 2198.95 407.006 2207.34 407.006 2215.81 407.234 2220.91 407.518 2227.03 407.654 2232.87 410.074 2237.33 414.309 2241.54 418.404 2244.1 423.927 2244.53 429.817ZM2235.88 475.241C2237.07 460.381 2237.26 445.455 2236.43 430.568 2236.09 423.041 2230.37 416.89 2222.96 416.072 2215.49 415.376 2207.98 415.09 2200.47 415.217 2191.51 415.217 2182.6 415.459 2178.68 415.892 2171.24 416.34 2165.18 422.105 2164.29 429.585 2163.06 444.856 2162.96 460.197 2163.98 475.484 2164.6 481.717 2169.05 486.87 2175.08 488.335 2183.09 489.491 2191.18 489.942 2199.27 489.679 2208.71 489.679 2217.97 489.377 2221.46 488.986 2228.94 488.563 2235.03 482.747 2235.86 475.221" fill="#3ABD52" fill-rule="evenodd"/><path d="M2200.28 428.971C2212.87 428.965 2223.08 439.388 2223.09 452.252 2223.09 452.332 2223.09 452.411 2223.09 452.491 2222.95 465.485 2212.61 475.951 2199.89 475.972 2187.32 475.99 2177.1 465.586 2177.09 452.733 2177.09 452.639 2177.09 452.546 2177.09 452.452 2177.19 439.445 2187.55 428.962 2200.28 428.971ZM2199.94 467.654C2208.11 467.638 2214.78 460.952 2214.94 452.603 2215.11 444.296 2208.66 437.421 2200.53 437.247 2200.46 437.245 2200.39 437.244 2200.32 437.244L2200.19 437.244C2192.01 437.259 2185.35 443.948 2185.19 452.299 2185.03 460.62 2191.5 467.495 2199.65 467.655 2199.7 467.656 2199.75 467.657 2199.81 467.657L2199.94 467.657" fill="#3ABD52" fill-rule="evenodd"/></g></svg>