<svg width="92" height="93" xmlns="http://www.w3.org/2000/svg" xmlns:xlink="http://www.w3.org/1999/xlink" xml:space="preserve" overflow="hidden"><g transform="translate(-1485 -1375)"><path d="M1496.15 1375.97C1502.16 1375.96 1507.05 1380.82 1507.06 1386.84 1507.06 1386.88 1507.06 1386.93 1507.06 1386.97 1507.01 1393.06 1502.07 1397.97 1495.98 1397.97 1489.95 1397.97 1485.07 1393.09 1485.06 1387.06 1485.06 1387.03 1485.06 1387 1485.06 1386.97 1485.13 1380.89 1490.07 1375.99 1496.15 1375.97Z" fill="#3ABD52" fill-rule="evenodd"/><path d="M1505.07 1405.97 1504.59 1467.97 1485.07 1467.97 1485.55 1405.97Z" fill="#3ABD52" fill-rule="evenodd"/><path d="M1553.69 1404.98C1572.77 1404.98 1576.19 1417.68 1576.06 1434.26L1575.81 1467.97 1557 1467.97 1557.22 1438.09C1557.28 1430.94 1557.18 1421.76 1547.54 1421.76 1537.74 1421.76 1536.21 1429.52 1536.14 1437.57L1535.92 1467.97 1517.06 1467.97 1517.53 1406.48 1535.58 1406.48 1535.52 1414.89 1535.8 1414.89C1539.53 1408.52 1546.39 1404.72 1553.69 1404.98Z" fill="#3ABD52" fill-rule="evenodd"/></g></svg>