<svg width="1588" height="1727" xmlns="http://www.w3.org/2000/svg" xmlns:xlink="http://www.w3.org/1999/xlink" xml:space="preserve" overflow="hidden"><g transform="translate(-3203 -72)"><path d="M3311.5 1075.5C3311.5 702.708 3634.97 400.5 4034 400.5 4433.03 400.5 4756.5 702.708 4756.5 1075.5 4756.5 1448.29 4433.03 1750.5 4034 1750.5 3634.97 1750.5 3311.5 1448.29 3311.5 1075.5Z" stroke="#00B050" stroke-width="68.75" stroke-linecap="round" stroke-linejoin="round" stroke-miterlimit="10" fill="none" fill-rule="evenodd"/><path d="M4050.5 1097C3797.83 1097 3593 1020.22 3593 925.5 3593 830.783 3797.83 754 4050.5 754 4303.17 754 4508 830.783 4508 925.5 4508 1020.22 4303.17 1097 4050.5 1097Z" stroke="#00B050" stroke-width="27.5" stroke-linecap="round" stroke-linejoin="round" stroke-miterlimit="10" fill="none" fill-rule="evenodd"/><path d="M3793.49 894.555C3723.95 744.044 3742.25 587.531 3834.37 544.974 3926.48 502.417 4057.52 589.931 4127.06 740.442 4196.6 890.953 4178.3 1047.47 4086.19 1090.02 3994.07 1132.58 3863.03 1045.07 3793.49 894.555Z" stroke="#00B050" stroke-width="27.5" stroke-linecap="round" stroke-linejoin="round" stroke-miterlimit="10" fill="none" fill-rule="evenodd"/><path d="M3947 746.466C4007 589.945 4132.44 492.502 4227.19 528.821 4321.93 565.14 4350.1 721.468 4290.1 877.989 4230.1 1034.51 4104.65 1131.95 4009.91 1095.63 3915.16 1059.31 3887 902.987 3947 746.466Z" stroke="#00B050" stroke-width="27.5" stroke-linecap="round" stroke-linejoin="round" stroke-miterlimit="10" fill="none" fill-rule="evenodd"/><path d="M3862 803C3862 640.628 3944.38 509 4046 509 4147.62 509 4230 640.628 4230 803 4230 965.372 4147.62 1097 4046 1097 3944.38 1097 3862 965.372 3862 803Z" stroke="#FFC000" stroke-width="27.5" stroke-linecap="round" stroke-linejoin="round" stroke-miterlimit="10" fill="none" fill-rule="evenodd"/><text fill="#FFC000" font-family="Berlin Sans FB Demi,Berlin Sans FB Demi_MSFontService,sans-serif" font-weight="600" font-size="220" transform="matrix(1 0 0 1 3590.6 1354)">IMPULSE</text><text fill="#FFC000" font-family="Berlin Sans FB Demi,Berlin Sans FB Demi_MSFontService,sans-serif" font-weight="600" font-size="220" transform="matrix(1 0 0 1 3720.35 1618)">AGRO</text><path d="M3427 1410 4662.67 1410" stroke="#00B050" stroke-width="27.5" stroke-linecap="round" stroke-linejoin="round" stroke-miterlimit="10" fill="none" fill-rule="evenodd"/><path d="M3922 1087.5 3984.17 1034.07 4044.5 979 4104.83 1034.07 4167 1087.5 4104.83 1140.93 4044.5 1196 3984.17 1140.93Z" fill="#00B050" fill-rule="evenodd"/><path d="M3930 1000C3930 940.906 3981.26 893 4044.5 893 4107.74 893 4159 940.906 4159 1000 4159 1059.09 4107.74 1107 4044.5 1107 3981.26 1107 3930 1059.09 3930 1000Z" stroke="#FFC000" stroke-width="5.72917" stroke-linecap="round" stroke-linejoin="round" stroke-miterlimit="10" fill="#FFC000" fill-rule="evenodd"/><path d="M3204.5 73.5001 3204.5 146.833" stroke="#87919C" stroke-width="3.4375" stroke-linecap="round" stroke-linejoin="round" stroke-miterlimit="10" stroke-opacity="0.6" fill="none" fill-rule="evenodd"/></g></svg>