<svg width="104" height="85" xmlns="http://www.w3.org/2000/svg" xmlns:xlink="http://www.w3.org/1999/xlink" xml:space="preserve" overflow="hidden"><g transform="translate(-2623 -930)"><path d="M2726.11 941.033C2725.38 942.166 2724.58 943.252 2723.72 944.286 2721.49 947.067 2718.9 949.536 2716.01 951.624L2715.65 952.313C2715.75 955.455 2715.6 958.6 2715.19 961.717 2714.33 968.265 2712.46 974.638 2709.64 980.601 2706.73 986.762 2702.84 992.403 2698.12 997.302 2690.25 1005.53 2680.11 1011.19 2669.02 1013.57 2665.15 1014.38 2661.21 1014.84 2657.25 1014.94 2656.62 1014.96 2655.98 1014.97 2655.35 1014.97 2644.13 1015.02 2633.12 1011.84 2623.62 1005.81L2623.11 1005.5C2624.76 1005.68 2626.41 1005.77 2628.07 1005.77 2633.61 1005.78 2639.1 1004.7 2644.23 1002.6 2647.84 1001.11 2651.23 999.125 2654.29 996.693 2645.33 996.502 2637.48 990.581 2634.79 981.974 2636.08 982.229 2637.39 982.357 2638.7 982.356 2640.43 982.351 2642.14 982.143 2643.82 981.737L2644.14 981.578C2638.44 980.405 2633.51 976.878 2630.53 971.857 2628.46 968.473 2627.41 964.561 2627.5 960.591 2630.38 962.171 2633.58 963.041 2636.86 963.131 2632.49 960.096 2629.42 955.502 2628.28 950.278 2627.09 945.04 2627.95 939.541 2630.68 934.923 2641.33 948.152 2657.06 956.212 2673.96 957.101 2673.85 956.226 2673.74 955.514 2673.62 954.76 2673.03 949.907 2674.16 944.999 2676.84 940.916 2679.97 935.733 2685.23 932.216 2691.19 931.315 2692.46 931.094 2693.74 930.979 2695.02 930.971 2700.52 930.984 2705.78 933.235 2709.6 937.212 2709.8 937.425 2710.08 937.548 2710.37 937.556 2710.49 937.557 2710.6 937.541 2710.71 937.511 2715.04 936.605 2719.2 935.012 2723.03 932.792L2723.31 932.63C2721.8 937.44 2718.62 941.541 2714.35 944.175 2718.4 943.726 2722.37 942.667 2726.11 941.033Z" fill="#3ABD52" fill-rule="evenodd"/></g></svg>