<svg width="111" height="78" xmlns="http://www.w3.org/2000/svg" xmlns:xlink="http://www.w3.org/1999/xlink" xml:space="preserve" overflow="hidden"><g transform="translate(-2362 -1415)"><path d="M2469.26 1425.97C2473.19 1436.34 2473.04 1474.14 2468.3 1484.13 2467.02 1486.74 2464.91 1488.86 2462.31 1490.15 2458.6 1492.07 2437.08 1492.97 2416 1492.97 2396.59 1492.97 2377.55 1492.21 2373.1 1490.75 2369.13 1489.55 2365.99 1486.49 2364.7 1482.55 2361.14 1472.52 2360.35 1430.5 2367.46 1422.21 2369.78 1419.44 2373.1 1417.69 2376.69 1417.34 2385.15 1416.43 2401.47 1415.97 2417.58 1415.97 2437.61 1415.97 2457.3 1416.66 2461.04 1418.03 2464.86 1419.26 2467.9 1422.19 2469.26 1425.97ZM2403.38 1471.07C2414.8 1465.13 2426.17 1459.28 2437.67 1453.34 2426.26 1447.36 2414.98 1441.47 2403.66 1435.53 2403.57 1447.41 2403.48 1459.15 2403.39 1471.07" fill="#3ABD52" fill-rule="evenodd"/></g></svg>