<svg width="110" height="287" xmlns="http://www.w3.org/2000/svg" xmlns:xlink="http://www.w3.org/1999/xlink" xml:space="preserve" overflow="hidden"><g transform="translate(-1825 -372)"><path d="M10.0551 15.9774C17.9423 6.41811 37.8857-8.27922 54.5616 9.40537 71.2375 27.09 48.7401 60.1889 35.4069 74.5277 28.8341 78.5107 15.1254 85.2819 12.8719 80.5023 10.0551 74.5277 8.36495 61.9812 31.4633 51.2271 46.2988 44.8542 78.3359 38.0831 87.8006 61.9812 92.1198 72.337 92.871 96.3945 61.3221 109.777L21.886 127.104M21.886 127.104C6.86263 127.706-14.7334 120.542 19.0691 87.0742 29.7732 81.8962 55.6884 71.421 73.7164 70.943 84.0448 73.1336 103.913 83.9675 100.758 109.777 101.134 114.956 94.1105 127.82 63.0123 137.858 55.8762 139.451 39.9139 142.756 33.1534 143.235L8.9284 146.82 21.886 127.104ZM21.886 127.104C31.7438 124.316 55.0095 119.576 69.2093 122.922 86.9592 127.104 93.9978 123.519 108.082 146.82 110.523 158.768 108.758 183.264 82.167 185.654 55.5757 188.044 38.4115 183.463 33.1534 180.875L33.1534 158.768M33.1534 158.768C52.4959 160.561 93.9978 159.246 105.265 139.649 110.711 125.71 111.124 97.2309 69.2093 94.8411 59.0687 95.2393 37.4351 96.514 32.0267 98.4258L33.1534 140.845C52.8715 142.637 94.3358 151.121 102.448 170.718 106.768 182.069 108.195 205.967 79.3501 210.747 68.6459 211.145 44.4209 209.671 33.1534 200.591M33.1534 158.768 33.1534 200.591M33.1534 158.768C45.3598 161.756 72.2516 170.001 82.167 179.082 94.1856 189.039 111.8 213.734 86.1106 232.853 78.0355 235.84 56.5897 238.23 35.4069 223.89M33.1534 200.591 35.4069 223.89M33.1534 200.591C46.6745 210.149 74.2797 233.33 76.5332 249.581 77.4722 259.538 74.9558 280.29 57.3785 283.636 52.8715 284.433 41.7167 284.353 33.1534 277.661L35.4069 223.89" stroke="#FFC000" stroke-width="1.12245" fill="none" transform="matrix(1 0 0 1.00666 1825 372)"/></g></svg>